<?xml version="1.0" encoding="utf-8"?>
<!-- Generator: Adobe Illustrator 16.2.1, SVG Export Plug-In . SVG Version: 6.00 Build 0)  -->
<!DOCTYPE svg PUBLIC "-//W3C//DTD SVG 1.1 Tiny//EN" "http://www.w3.org/Graphics/SVG/1.1/DTD/svg11-tiny.dtd">
<svg version="1.1" baseProfile="tiny" id="Layer_1" xmlns="http://www.w3.org/2000/svg" xmlns:xlink="http://www.w3.org/1999/xlink"
	 x="0px" y="0px" width="120px" height="120px" viewBox="0 0 120 120" xml:space="preserve">
<path fill="#8CC63F" d="M60.834,115.396c-1.526,0-3.055-0.35-4.463-1.051l-42.066-20.98c-3.393-1.693-5.537-5.158-5.537-8.949
	V34.585c0-3.791,2.144-7.256,5.537-8.949L56.37,4.655c2.732-1.363,5.938-1.402,8.702-0.108l40.166,18.796
	C108.754,24.988,111,28.519,111,32.4v49.393c0,3.545-1.877,6.825-4.934,8.621L65.9,114.018
	C64.341,114.935,62.589,115.396,60.834,115.396z M28.769,78.229l31.675,15.799L91,76.07V38.761L60.973,24.709L28.769,40.772V78.229z
	"/>
<path fill="#8CC63F" d="M101.849,34.976c-0.769-1.467-2.581-2.034-4.05-1.266L59.884,53.561L21.969,33.71
	c-1.468-0.768-3.281-0.202-4.049,1.266s-0.144,3.281,1.324,4.049L57,58.763v21.68c0,1.657,1.343,3,3,3s3-1.343,3-3v-21.68
	l37.641-19.737C102.107,38.257,102.617,36.444,101.849,34.976z"/>
</svg>
