<svg viewBox="0 0 720 375" xmlns="http://www.w3.org/2000/svg" fill-rule="evenodd" clip-rule="evenodd" stroke-linejoin="round" stroke-miterlimit="1.414"><g fill="#8f9da2" fill-rule="nonzero"><path d="M684.67 246.132c-6.79 1.758-21.217 7.396-26.734 10.366-8.79 4.73-10.063 8.366-4.97 14.428 3.88 4.668 7.577 5.76 9.76 2.97 1.212-1.515 1.697-3.273.97-3.273-.183 0-1.153.606-2.123 1.334l-1.818 1.333-1.637-1.212c-2.06-1.576-4.79-5.03-5.335-6.73-.788-2.787 6.184-7.03 20.61-12.608 13.277-5.153 22.492-6.668 26.068-4.304 2.73 1.758 4.002 5.698 4.002 11.882-.06 8.91-2.12 15.882-8.608 28.734-8.062 16.125-15.276 23.46-22.066 22.672l-1.818-.182-.182-2.182c-.12-1.697.363-2.91 2.303-5.82 2.487-3.82 5.882-6.85 7.518-6.85.788 0 .97.728.97 3.334 0 3.213.667 4.365 1.455 2.365.182-.547.364-2.305.364-3.942v-2.97l-1.455-.667c-2-.97-5.153.668-8.487 4.366-3.395 3.758-5.213 7.517-5.213 10.73 0 3.09 1.576 4.364 5.456 4.364 7.88-.06 15.64-8.062 23.884-24.672 7.638-15.277 10.185-26.19 8.184-35.282-.85-4.122-2.728-6.79-6-8.426-3.517-1.758-7.76-1.698-15.096.242zM343.018 246.393c-4.73 2.48-10.386 11.368-17.022 26.66l-3 6.923-9.117.404c-21.582.923-36.008 2.02-36.008 2.77 0 1.04 3.808 1.212 12.233.577 10.04-.75 31.217-1.616 31.563-1.327.174.115-.692 2.943-1.788 6.405-3.982 11.77-8.598 30.294-11.483 45.7-1.558 8.367-2.25 29.544-1.097 31.795l.75 1.384.462-1.154c.23-.634.462-3.866.462-7.212.058-7.444.923-17.658 2.135-24.524.864-5.367 4.788-22.966 6.288-28.563.462-1.788 1.097-4.384 1.385-5.77.635-2.942 5.655-17.368 6.29-18.003.23-.173 9.06-.577 19.62-.807 14.425-.29 19.156-.23 19.156.288 0 .346-.924 3.693-2.02 7.444-3.174 10.848-8.887 35.14-9.58 40.796-.46 3.75-.403 5.655.06 6.866.98 2.655 1.614 1.212 2.25-5.366.922-8.944 10.5-47.374 12.347-49.624l.693-.808 20.253.404 20.312.404.346-.924c.174-.52 0-.98-.403-1.154-.346-.115-9.52-.346-20.31-.577-10.734-.174-19.678-.462-19.793-.578-.462-.404 5.885-14.945 8.597-19.56 1.56-2.77 2.83-5.425 2.83-5.944v-.924l-1.213 1.097c-2.597 2.31-10.444 17.542-12.348 23.774-.232.75-.925 1.558-1.617 1.847-1.904.693-37.91.75-37.91 0 0-.807 7.27-17.022 9.116-20.195 2.596-4.616 6.347-9.58 7.962-10.675.866-.577 2.308-1.04 3.232-.98 1.73.057 2.25-1.27.692-1.848-1.327-.52-1.558-.46-4.328.98zM216.766 253.414c-8.83 2.02-13.502 5.136-14.772 9.695-1.327 4.96.29 9.058 7.097 18.348 5.31 7.155 8.195 12.175 9.696 16.734 4.904 14.6-7.502 26.543-27.525 26.543-7.904 0-10.097-2.02-9.173-8.367.52-3.23 3.693-9.752 7.328-15.003 3.174-4.673 9.752-11.252 11.136-11.252 1.27 0 2.656 3 2.656 5.77 0 2.31.75 3.06 1.385 1.386.635-1.617.347-5.425-.46-7.445-1.04-2.48-2.944-3.058-5.598-1.673-2.885 1.442-8.713 7.732-12.406 13.27-8.08 12.176-9.175 21.467-2.885 24.93 2.482 1.384 13.56 1.326 18.812-.117 12.175-3.29 19.56-10.905 20.08-20.657.404-7.098-2.712-14.195-11.54-26.255-5.136-6.982-6.463-9.636-6.463-13.156 0-3.81 1.615-6.117 5.596-7.963 6.636-3.116 17.773-4.212 23.947-2.424 3.866 1.154 7.04 3.866 7.04 6 0 2.08-2.828 6.406-5.424 8.426-2.31 1.79-2.656 2.597-.925 2.597.577 0 2.54-1.385 4.27-3.06 6.29-6.173 5.713-11.54-1.788-15.174l-3.232-1.617-6.693-.173c-4.213-.116-7.963.173-10.156.634zM268.37 270.224l-.75.866.866.866c1.154 1.154 2.77.403 2.77-1.27 0-1.616-1.73-1.904-2.885-.462z"/><path d="M337.325 270.05c-1.442 1.098-.75 2.887.98 2.598.982-.115 1.33-.577 1.33-1.558 0-1.73-.81-2.077-2.31-1.04zM342.267 290.304c-3.145.678-4.193 1.726-4.193 4.13v2.098l3.7 4.008c3.885 4.317 4.748 6.598 4.07 10.483-.802 4.255-6.29 8.448-9.62 7.4-2.528-.802-4.008-6.29-2.343-8.942.926-1.478.37-2.095-1.356-1.54-3.207.986-3.145 7.4.123 11.1l1.85 2.158h2.775c3.145 0 5.365-.987 7.708-3.515 3.392-3.515 4.502-9.188 2.714-13.32-.494-1.11-2.282-3.453-4.07-5.303-4.008-4.193-4.008-5.673.06-6.475 1.543-.308 4.133-.37 5.736-.123l2.96.493-1.418 1.48c-1.727 1.85-1.048 2.713 1.172 1.418 2.158-1.17 2.59-3.884.8-4.81-1.664-.924-7.83-1.356-10.667-.74zM329.81 296.19c-2.342 2.342-4.07 7.152-4.07 11.345 0 3.39.494 4.563 1.85 4.563 1.234 0 2.282-3.02 1.296-3.7-.432-.246-.493-1.54-.062-3.885.617-3.823 1.357-5.55 3.268-7.708.987-1.048 1.11-1.54.555-2.096-.493-.495-1.233-.125-2.836 1.48zM233.167 294.287c-5.512 2.297-8.137 5.513-8.137 9.91v3.084l1.903 1.84c.984.983 3.28 2.23 4.988 2.755 5.185 1.51 8.926 1.182 15.03-1.378l1.18-.525-.46 2.69c-.458 2.888.395 5.382 1.97 5.382.656 0 .92-.853.853-3.15 0-3.347 1.378-6.628 5.71-13.913 1.247-1.968 2.362-4.396 2.625-5.446.787-3.02-1.116-2.1-3.15 1.444-6.235 11.156-12.93 14.832-22.445 12.47-1.575-.395-3.478-1.314-4.2-1.97-1.838-1.706-1.772-5.12.066-7.48 2.427-3.15 9.515-5.514 10.76-3.545.198.394-.26 1.575-1.05 2.69-1.705 2.363-1.31 3.085.986 1.576 1.903-1.248 3.084-3.808 2.56-5.252-.394-.984-3.676-2.362-5.448-2.297-.59 0-2.23.526-3.74 1.117zM299.087 296.028c-3.404 1.962-7.674 6.52-10.098 10.733-.924 1.56-1.674 2.482-1.674 1.963 0-1.905 1.79-6.06 3.173-7.33.807-.75 1.442-1.557 1.442-1.845 0-1.04-1.27-1.212-2.597-.346-2.365 1.558-3.923 5.308-4.212 10.213-.404 7.213 1.096 6.81 6.232-1.616 1.673-2.77 4.155-6.06 5.482-7.387 2.366-2.25 6.924-4.847 7.5-4.212.174.174-.057 2.598-.576 5.425-1.5 8.598.06 12.348 5.194 12.348 1.443 0 2.597-.288 2.597-.577 0-.634-.403-.807-3.057-1.442-1.154-.23-1.905-.923-2.54-2.424l-.865-2.135.693-5.366c.347-2.944.52-5.887.29-6.52-.52-1.675-3.463-1.502-6.983.518zM525.848 258.92c-.19.51-1.595 5.043-3.064 10.022l-2.68 9.13-23.236.445c-25.662.447-40.025 1.277-42.067 2.426-1.468.766-1.85 2.554-.51 2.554.447 0 1.15-.32 1.596-.767.957-.957 13.15-1.66 40.6-2.17l22.915-.447-.446 1.532c-6.128 22.087-8.68 36.13-9.128 49.727l-.32 10.533 1.597 1.532c2.17 1.98 3.638 1.15 1.66-.957l-1.405-1.532.383-8.427c.512-10.02 1.66-18.064 4.278-29.937 1.98-8.745 5.362-21.448 5.873-21.96.128-.19 7.98-.318 17.49-.382 16.79-.127 20.556-.51 19.726-1.914-.32-.447-5.936-.51-18.576-.192-9.958.256-18.13.32-18.13.192 0-.192.576-2.426 1.278-4.98.766-2.616 1.724-6.638 2.234-8.936.447-2.298 1.085-4.724 1.277-5.362.254-.638.127-1.085-.256-1.085-.447 0-.894.447-1.086.957zM641.51 271.766c-.988.988-1.27 1.693-.776 2.187.987.988 4.092.14 4.657-1.27.988-2.61-1.552-3.246-3.88-.917zM657.396 294.03c-6.492 2.045-9.808 4.585-15.03 11.36l-1.623 2.116.424-2.117c.21-1.2 1.2-3.317 2.187-4.728 1.976-3.105 2.117-4.305.494-3.952-2.752.494-6.844 9.455-5.363 11.713 1.835 2.893 4.093 1.694 8.82-4.727 2.188-2.893 3.81-4.163 7.198-5.716 2.328-1.058 5.22-2.187 6.28-2.4l2.046-.493-.495 1.623c-.283.917-1.13 2.823-1.905 4.304-.706 1.482-1.553 4.234-1.764 6.07l-.353 3.456 1.482 1.482c.917.917 2.4 1.482 3.95 1.482 3.176 0 3.247-1.553.213-2.47-3.105-.917-3.317-3.105-.988-9.032 3.387-8.396 1.975-10.372-5.574-7.973z"/><path d="M497.378 287.24c-2.362.83-4.85 2.044-5.617 2.682-2.872 2.554-.957 5.426 4.916 7.405 8.235 2.68 11.043 4.724 11.043 7.852-.064 4.85-8.108 13.787-12.385 13.787-1.532 0-2.298-.447-3.064-1.787-1.85-3.128-1.658-4.724.96-7.34 3.574-3.704 1.53-5.108-3-2.044-1.47 1.02-3.257 1.596-4.725 1.596-2.298 0-9.958-1.596-11.043-2.298-.32-.192.83-1.66 2.617-3.256 3.765-3.383 5.106-5.68 5.106-8.745 0-4.724-4.916-7.852-11.3-7.213-4.914.51-8.106 2.234-8.36 4.468-.257 2.234 1.594 5.362 2.616 4.34.447-.446.447-1.084-.064-2.233-.83-1.788-.383-2.362 3-3.51 6.958-2.3 12.64.765 11.235 6.127-.447 1.98-4.468 6.064-7.405 7.596l-1.98 1.022-5.17-1.405c-7.66-2.043-11.936-1.15-11.936 2.49 0 2.298.702 3.19 3.19 3.894 2.427.7 5.81.382 10.662-1.087l3.32-.957 4.978 1.277c2.745.766 6.767 1.532 8.937 1.787l3.957.447.957 3.255c2.426 8.235 8.746 8.427 15.704.575 3.638-4.15 6-9.192 5.426-11.682-.894-4.02-4.022-6.256-13.853-9.83-1.722-.64-3.063-1.532-3.063-2.043 0-1.213 4.788-3.256 9.83-4.15 5.3-1.02 6.13-.638 6.13 2.618 0 3.128 1.53 3.575 2.17.574.574-2.936.51-3.574-.64-4.66-1.467-1.53-7.978-1.276-13.15.447zm-34.98 19.024c1.786.383 3.19.83 3 .958-.575.638-7.087 1.468-8.49 1.15-1.597-.448-2.044-1.853-.703-2.363 1.277-.576 2.745-.512 6.192.254zM133.724 315.502s2.745.32 5.362-2.298c3.574-3.703.745-1.52-3.252-.52-1.735.432-3.004.073-4.472.073-2.298 0-9.958-1.596-11.044-2.298-.32-.193.83-1.66 2.618-3.257 3.766-3.383 5.106-5.68 5.106-8.745 0-4.724-4.915-7.852-11.298-7.213-4.916.51-8.107 2.234-8.363 4.468-.254 2.234 1.597 5.362 2.62 4.34.445-.446.445-1.084-.065-2.233-.83-1.788-.383-2.362 3-3.51 6.958-2.3 12.64.765 11.235 6.127-.447 1.98-4.47 6.064-7.405 7.596l-1.98 1.02-5.17-1.403c-7.66-2.043-11.936-1.15-11.936 2.49 0 2.298.7 3.19 3.19 3.894 2.426.702 5.81.383 10.66-1.086l3.32-.957 4.98 1.278c2.744.766 6.766 1.532 8.936 1.787l3.958.447zm-25.47-5.873c1.787.382 3.19.83 3 .956-.575.64-7.086 1.47-8.49 1.15-1.596-.447-2.043-1.852-.702-2.362 1.276-.575 2.745-.51 6.192.255zM593.06 295.98c-.848.353-3.388 2.682-5.646 5.222-4.515 5.08-5.856 5.856-4.092 2.47.776-1.553.917-2.4.353-2.964-.494-.494-1.27.423-2.54 3.104-2.188 4.8-2.188 5.575.14 5.575 1.412 0 3.176-1.34 7.268-5.645 2.964-3.105 5.645-5.645 5.927-5.645.283 0 .353 2.68.07 5.927l-.493 5.998 1.764 1.764c1.06 1.058 2.682 1.834 3.67 1.834 3.74 0 9.173-3.88 14.253-10.16l2.258-2.823.777 1.976c.353 1.058.706 2.187.706 2.47 0 1.2 3.457 3.67 5.715 4.02 2.61.425 6.28-.634 6.28-1.833 0-.353-1.482-.706-3.246-.706-4.233 0-5.644-.846-6.703-4.022-1.835-5.856-3.388-5.856-8.68.14-4.868 5.505-9.455 8.47-12.136 7.834l-1.905-.494.493-5.927c.635-7.974-.282-9.738-4.234-8.115z"/><path d="M634.1 295.474c-2.186 2.188-6.138 11.5-6.208 14.606-.07 4.728 1.693 3.67 3.457-2.046.846-2.752 2.045-5.998 2.68-7.197 1.976-3.74 2.61-5.786 1.905-6.21-.282-.21-1.13.212-1.834.847zM574.55 288.243c-3.713 1.157-5.835 3.134-8.197 7.715-1.93 3.616-3.23 5.11-4.002 4.532-2.265-1.832-5.88-.724-6.363 1.928-.386 2.074.434 5.256 1.64 6.316.45.392.677.784.736 1.317.035.32-.845 3.217-.917 3.67-.338 1.976.53 2.554 1.93 1.35l1.914-3.395 7.715.29 2.12 4.05c5.015 9.595 11.428 14.753 20.3 16.2 3.712.578 6.46.53 10.27-.29 6.508-1.35 15.428-6.074 17.26-9.112.482-.82.916-1.64.916-1.832 0-.867-1.735-1.83-4.194-2.313-1.543-.338-3.327-.772-3.953-1.013-.675-.29-1.35-.29-1.59-.048-.82.82.963 1.88 4.193 2.507 1.736.338 3.28.77 3.375 1.013.628.964-5.013 4.676-10.413 6.846-4.436 1.784-7.33 2.314-11.813 2.314-9.835-.048-17.55-5.303-22.468-15.14-1.012-1.976-1.832-3.712-1.832-3.808 0-.145.82-.482 1.832-.77 5.786-1.834 11.138-9.5 11.186-16.105 0-3.52-.578-4.966-2.362-5.93-1.495-.772-5.208-.917-7.28-.29zm6.81 3.616c.734.914.75 2.558.628 3.856-.29 3.086-2.024 6.537-4.272 9.145-1.205 1.4-6.01 4.646-7.217 4.646-.29 0-1.11-1.06-1.833-2.314-.723-1.254-1.784-2.845-2.362-3.52l-1.013-1.254s5.703-10.51 8.885-11.427c3.23-.867 6.027-.578 7.184.87zm-19.684 10.414c.24.193-.24 1.64-1.06 3.182l-1.447 2.844-.724-1.783c-.965-2.315-.965-3.472 0-4.484.77-.724 2.314-.627 3.23.24zm4.63 4.725c.818 1.3 1.493 2.506 1.493 2.65 0 .193-1.303.338-2.894.338-1.59 0-2.893-.096-2.893-.24 0-.435 2.41-5.064 2.604-5.064.096 0 .868 1.06 1.688 2.315zM158.36 267.168c-2.425 2.827-6.58 10.675-8.6 16.33-1.615 4.616-3.865 14.425-3.865 17.022v1.73l-2.712 1.905c-4.386 3.058-8.77 6.75-9.406 7.905-.404.808-.346 1.328.346 1.962 1.328 1.385 3.578 1.154 7.617-.807l3.578-1.674v2.77c0 3.867 1.904 9.753 4.04 12.292.98 1.154 3.23 2.827 5.077 3.75l3.29 1.616 5.192-.058h5.193l3.75-1.558c4.04-1.73 6.868-3.577 6.233-4.154-.173-.23-1.385.173-2.597.75-4.212 2.192-8.77 3.173-13.098 2.885-8.08-.52-12.637-4.674-14.137-12.868-1.038-5.712-.865-6.982 1.27-8.424 3.405-2.365 8.425-8.25 10.444-12.348 3.29-6.636 4.617-12.694 4.674-21.06v-7.272l-1.038-1.558c-1.385-2.192-2.886-1.962-5.25.866zm3.922 4.385c.404 2.885-.403 10.444-1.673 15.465-1.847 7.097-7.618 16.79-9.118 15.29-.346-.345-1.212-.634-1.962-.634h-1.27l.29-1.904c2.307-13.618 5.654-22.966 10.616-29.775 2.078-2.827 2.482-2.654 3.116 1.558zm-11.77 32.718c0 .116-.52.52-1.155.866-.923.52-1.154.462-1.154-.288 0-.462.52-.866 1.154-.866.635 0 1.154.116 1.154.29zm-5.194 2.828c0 1.04-.75 1.73-3.462 3.174-5.02 2.712-5.424 1.904-.808-1.558 2.193-1.616 4.04-3 4.154-3 .058 0 .116.634.116 1.384zM260.753 293.5c-.525.26-.945.89-.945 1.364v.84l1.994-.368c1.05-.157 6.51-.315 12.075-.315 4.685-.314 10.89-.422 11.748-1.438.964-1.143-8.322-.662-12.798-.66-6.615 0-11.55.262-12.074.577zM526.973 292.24c-4.616.46-6.232.98-5.886 1.96.173.405 1.385.578 3.347.405 1.73-.115 7.905-.46 13.733-.865 7.502-.462 10.733-.866 10.906-1.385.173-.52-1.846-.692-8.944-.635-5.02.058-10.907.29-13.157.52z"/><path d="M537.36 299.856c-3.81.29-9.118.808-11.83 1.212l-4.904.692-.173 1.097-.23 1.096 4.788-.404c2.655-.174 7.33-.635 10.33-.924 7.617-.75 17.888-.75 17.888.058 0 .346.692.52 1.615.404 1.097-.116 1.558-.52 1.558-1.328 0-2.596-4.27-3-19.04-1.904zM261.022 302.16c-1.837.42-2.52 1.21-1.575 1.786.893.578 17.115.683 21.42.21 3.202-.42 3.517-.997.787-1.47-2.677-.42-19.004-.84-20.632-.525zM536.494 308.743c-1.73.115-6.117.46-9.636.865-5.136.52-6.52.866-6.52 1.558v.866l7.385-.52c11.02-.75 21.004-.692 21.35.173.115.404.692.75 1.27.75 1.327 0 2.654-1.615 1.96-2.308-.633-.634-8.192-1.73-10.904-1.615-.925.057-3.175.173-4.906.23zM268.255 310.246c-9.292.525-14.437 1.837-11.55 2.94.42.157 4.096-.053 8.243-.525 4.147-.42 10.132-.944 13.282-1.154 6.09-.368 7.402-.683 5.722-1.313-1.154-.472-6.93-.472-15.697.053zM99.37 257.99c-4.165 4.76-8.584 19.208-9.69 31.616l-.594 7.14-3.485 3.568c-4.163 4.42-7.053 5.355-11.387 3.655-6.8-2.55-8.074-10.795-3.654-24.393 1.358-4.164 2.208-7.904 1.953-8.16-1.02-1.02-1.784-.254-2.804 2.72-3.23 10.03-11.22 22.353-20.993 32.296-9.01 9.264-14.958 12.58-22.437 12.58-3.528 0-6.133-1.235-8.244-3.316-5.95-5.864-7.14-10.538-5.1-20.227 1.275-5.694 4.59-9.094 11.22-11.558 9.943-3.74 15.892-1.785 15.892 5.1 0 6.458-4.25 12.492-9.01 12.832-1.766.126-2.55-.75-2.72-2.04-.31-2.382 1.87-3.91 3.656-2.464 1.105.935 2.125.255 2.125-1.36 0-1.87-3.996-2.38-6.375-.85-1.615 1.02-2.125 2.125-2.125 4.334 0 3.655 2.89 5.95 6.63 5.1 4.758-1.02 10.367-9.01 10.367-14.703 0-9.348-6.884-12.577-18.272-8.668-9.69 3.314-13.598 8.414-14.618 19.122-.595 6.63.85 11.22 5.184 15.893 6.036 6.544 12.155 7.31 21.503 2.805 6.29-3.06 21.162-17.423 25.582-24.647l3.144-5.1.424 5.1c.51 5.864 1.615 8.16 4.845 10.454 5.353 3.738 10.452 3.398 15.466-1.106l3.23-2.975.595 5.778c1.87 18.528 10.284 32.55 22.948 38.5 12.153 5.694 23.456 2.04 23.456-7.65 0-2.804-2.55-5.183-5.524-5.183l-1.7.085 2.38 1.87c5.184 4.334.51 10.793-7.82 10.793-9.773 0-20.31-7.904-25.835-19.547-3.315-6.97-4.42-11.644-5.355-21.332l-.51-6.374 3.06-6.46c3.91-8.158 6.374-17.762 7.054-27.28.51-7.565 0-8.754-2.465-5.95zm-.68 12.323c-1.02 6.035-3.655 15.128-5.185 17.678-.51 1.02-.68.85-.765-.68-.085-5.183 5.355-24.815 6.544-23.626.255.17-.085 3.23-.594 6.63zM455.008 257.99c-4.164 4.76-8.584 19.208-9.69 31.616l-.594 7.14-3.484 3.568c-4.165 4.42-7.054 5.355-11.388 3.655-6.8-2.55-8.074-10.795-3.655-24.393 1.36-4.164 2.21-7.904 1.955-8.16-1.02-1.02-1.785-.254-2.805 2.72-3.23 10.03-11.218 22.353-20.992 32.296-9.01 9.264-14.97 13.02-22.437 12.58-14.498-.86-15.86-14.027-14.715-23.31.735-5.96-4.54 11.56 3.327 20.504 5.874 6.678 12.153 7.31 21.502 2.805 6.29-3.06 21.162-17.423 25.58-24.647l3.146-5.1.425 5.1c.51 5.864 1.615 8.16 4.844 10.454 5.354 3.738 10.454 3.398 15.468-1.106l3.23-2.975.594 5.778c1.87 18.528 10.283 32.55 22.946 38.5 12.153 5.694 23.457 2.04 23.457-7.65 0-2.804-2.55-5.183-5.524-5.183l-1.7.085 2.378 1.87c5.185 4.334.51 10.793-7.818 10.793-9.774 0-20.313-7.904-25.837-19.547-3.314-6.97-4.42-11.644-5.354-21.332l-.51-6.374 3.06-6.46c3.908-8.158 6.373-17.762 7.053-27.28.51-7.565 0-8.754-2.465-5.95zm-.68 12.323c-1.02 6.035-3.654 15.128-5.184 17.678-.51 1.02-.68.85-.765-.68-.086-5.183 5.353-24.815 6.543-23.626.255.17-.085 3.23-.595 6.63z"/></g><path d="M330.786 200.058c12.542 2.673-.483 18.87-4.348 13.858-8.63-12.558-15.57-29.227-20.884-45.816-6.83-21.33-10.97-42.525-12.54-54.68-.93-7.202-1.094-11.095-.108-10.23 2.548 2.238 2.34 5.663 3.262 9.61 2.938 12.596 10.157 33.447 16.338 52.62 5.806 18.013 12.34 33.167 18.28 34.638z" fill="#f1b834"/><path d="M297.127 28.024c-8.657 9.46-16.024-9.973-9.746-10.77 15.2-1.078 33.088 1.38 50.083 5.2 21.85 4.913 42.222 12.08 53.498 16.884 6.682 2.846 10.123 4.674 8.877 5.086-3.22 1.064-7.854-1.646-11.724-2.852-12.35-3.847-32.198-7.385-51.86-11.767-18.473-4.116-34.848-6.158-39.126-1.78z" fill="#46acd8"/><path d="M461.912 84.79c-4.016-12.177 16.537-9.097 14.16-3.232-6.493 13.784-17.387 28.185-29.032 41.138-14.973 16.655-31.19 30.918-40.894 38.403-5.75 4.434-9.03 6.54-8.78 5.252.648-3.33 5.003-5.86 7.948-8.646 9.395-8.888 22.467-24.655 35.907-39.662 12.626-14.097 22.417-27.38 20.692-33.253z" fill="#9059ce"/><path d="M377.523 75.817c2.143-.135 4.126-.33 5.848-.6 43.75-6.847 88.29-8.564 91.564-6.42 4.758 3.12 5.466 8.425 2.97 14.258-20.638 41.734-82.363 88.426-80.518 83.497 9.627-5.702 70.147-66.307 66.262-80.526-3.793-12.284-55.02 7.81-74.825 31.96-2.455 4.005-4.94 8.293-6.95 12.217-.18.44-.38.835-.597 1.187-.954 1.923-1.777 3.738-2.405 5.364-15.943 41.31-36.727 80.743-40.22 82.506-5.08 2.56-10.03.52-13.834-4.557-25.822-38.74-35.396-115.54-32.05-111.48.124 11.19 22.35 93.903 36.606 97.65 12.535 2.856 20.746-51.554 9.736-80.78-2.242-4.13-4.714-8.426-7.108-12.128-.29-.377-.532-.748-.73-1.112-1.186-1.787-2.347-3.407-3.442-4.764-27.804-34.464-51.56-72.18-51.34-76.088.32-5.68 4.562-8.945 10.862-9.7 46.462-2.994 117.76 27.115 112.57 27.982-9.752-5.486-92.497-27.595-102.87-17.122-8.74 9.427 34.273 43.743 65.09 48.822 4.697.123 9.653.13 14.056-.092.472-.063.914-.087 1.327-.075z" fill="#b1b9bc"/></svg>