<?xml version="1.0" standalone="no"?><!DOCTYPE svg PUBLIC "-//W3C//DTD SVG 1.1//EN" "http://www.w3.org/Graphics/SVG/1.1/DTD/svg11.dtd"><svg width="100%" height="100%" viewBox="0 0 448 281" version="1.1" xmlns="http://www.w3.org/2000/svg" xmlns:xlink="http://www.w3.org/1999/xlink" xml:space="preserve" style="fill-rule:evenodd;clip-rule:evenodd;stroke-linecap:round;stroke-linejoin:round;stroke-miterlimit:1.41421;"><g id="Layer3"><path d="M229.618,56.952c1.311,-0.867 2.497,-2.428 2.988,-3.779c1.631,-4.023 0.095,-12.873 -1.536,-15.809c-2.284,-4.458 8.807,2.61 20.551,12.831c4.825,4.199 10.708,8.314 9.064,18.808c-1.409,8.998 -6.755,18.125 -8.042,20.205c-0.766,1.241 7.281,-1.975 10.326,-4.259c3.693,-7.443 5.646,-20.828 9.646,-18.104c0.155,16.629 5.315,16.868 3.776,26.11c-0.109,4.676 -0.051,9.413 1.749,15.798c3.721,13.197 5.213,23.89 -3.268,44.985c-6.307,15.549 -28.614,30 -45.257,31.151c-18.521,1.281 -39.03,-4.495 -47.003,-12.971c-14.612,-11.078 -21.888,-30.908 -19.15,-52.967c1.643,-13.235 1.619,-31.932 8.007,-36.732c4.882,-3.668 6.076,-3.288 3.706,-0.398c-2.273,2.772 -3.283,14.941 -1.754,14.196c4.206,-2.05 7.935,-14.985 8.236,-27.316c0.544,-22.29 12.593,-31.579 15.839,-34.935c6.441,-6.66 25.553,-23.052 25.553,-18.594c0,0.652 -1.305,4.132 -2.827,7.829c-7.857,18.736 -8.725,23.893 3.291,32.244c0.311,0.279 0.639,0.565 0.985,0.858c2.963,2.507 7.838,7.542 8.425,11.362c0.909,5.917 0.162,11.368 -4.985,15.087c-3.485,2.518 -10.613,1.567 -13.872,-4.211c-1.798,-3.188 -1.348,-8.88 1.908,-10.864c2.254,-1.373 6.102,-0.585 7.338,1.424c0.893,1.453 0.739,3.5 -0.608,4.446c-1.48,1.038 -5.803,-0.711 -3.252,1.23c0.865,0.658 3.109,1.169 4.364,0.576c2.174,-1.027 3.336,-4.295 1.859,-6.906c-1.852,-3.271 -5.076,-5.201 -10.262,-3.329c-2.193,0.792 -3.615,2.357 -4.583,5.307c-1.403,4.278 0.494,10.69 3.754,13.315c4.685,3.772 10.421,4.243 14.802,1.265c7.942,-5.4 6.98,-15.739 5.615,-19.694c-1.023,-2.965 -1.842,-4.533 -5.383,-8.159Z" style="fill:#7179d1;"/><path d="M221.236,87.31c25.596,-0.712 48.565,15.309 48.565,42.554c0,27.245 -14.458,50.763 -48.565,50.763c-34.107,0 -49.076,-19.985 -49.076,-47.23c0,-27.244 22.499,-45.347 49.076,-46.087Z" style="fill:#716fcd;"/><path d="M222,174.787c-0.211,0.003 -0.659,-0.016 -0.781,-0.022c-2.502,-0.111 -3.034,-0.622 -3.162,-2.379c-0.201,-2.305 -1.843,-2.411 -2.606,-0.702c-0.303,0.678 -0.747,1.877 -0.952,2.027c-0.167,0.121 -1.478,-0.186 -2.506,-0.401c-2.857,-0.451 -2.706,-0.924 -3.759,-3.079c-0.952,-1.854 -3.808,-2.062 -7.868,-3.014c-8.025,0.904 -21.425,-23.615 -21.95,-31.873c-0.07,-1.101 0.015,-8.983 1.052,-13.481c1.236,-5.355 5.769,-14.887 8.821,-17.791c13.217,-12.574 25.417,-12.169 33.711,-12.221c8.294,-0.051 20.494,-0.353 33.711,12.221c3.052,2.904 7.585,12.436 8.821,17.791c1.037,4.498 1.122,12.38 1.052,13.481c-0.525,8.258 -13.925,32.777 -21.95,31.873c-4.06,0.952 -6.916,1.16 -7.868,3.014c-1.053,2.155 -0.902,2.628 -3.759,3.079c-1.055,0.23 -2.306,0.539 -2.506,0.401c-0.166,-0.115 -0.664,-1.333 -0.952,-2.027c-0.714,-1.722 -2.405,-1.603 -2.606,0.702c-0.128,1.757 -0.66,2.268 -3.162,2.379c-0.136,0.006 -0.57,0.019 -0.781,0.022Z" style="fill:#f8f8f8;"/><path d="M251.919,136.221c11.854,6.384 4.66,4.36 4.66,7.317c0,1.954 0.016,3.355 -1.688,5.911c-2.155,3.208 -6.114,7.016 -8.87,8.62c-6.765,3.909 -13.23,-0.05 -13.28,-8.119c0,-4.259 -0.668,-4.608 1.838,-8.367c2.906,-4.36 5.512,-6.264 8.97,-6.565c3.158,-0.3 6.415,0.151 8.37,1.203Z" style="fill:#d3d2c6;fill-rule:nonzero;"/><path d="M192.519,136.221c-11.855,6.384 -4.661,4.36 -4.661,7.317c0,1.954 -0.016,3.355 1.688,5.911c2.155,3.208 6.114,7.016 8.87,8.62c6.766,3.909 13.231,-0.05 13.281,-8.119c0,-4.259 0.667,-4.608 -1.838,-8.367c-2.907,-4.36 -5.513,-6.264 -8.971,-6.565c-3.157,-0.3 -6.415,0.151 -8.369,1.203Z" style="fill:#d3d2c6;fill-rule:nonzero;"/><path d="M253.275,136.221c2.837,1.528 4.661,4.36 4.661,7.317c0,1.954 -1.704,6.415 -3.408,8.97c-2.101,3.151 -6.014,7.202 -8.871,8.62c-7.155,3.552 -13.28,-0.379 -13.28,-8.118c0,-4.26 1.052,-7.668 3.558,-11.427c2.907,-4.36 5.513,-6.264 8.971,-6.565c3.319,-0.288 6.414,0.151 8.369,1.203Z" style="fill:#d66565;fill-rule:nonzero;"/><path d="M190.94,136.221c-2.837,1.528 -4.661,4.36 -4.661,7.317c0,1.954 1.704,6.415 3.408,8.97c2.101,3.151 6.014,7.202 8.87,8.62c7.156,3.552 13.281,-0.379 13.281,-8.118c0,-4.26 -1.053,-7.668 -3.558,-11.427c-2.907,-4.36 -5.513,-6.264 -8.971,-6.565c-3.319,-0.288 -6.415,0.151 -8.369,1.203Z" style="fill:#68c1e6;fill-rule:nonzero;"/><path d="M246.916,144.24c1.479,0.796 2.43,2.273 2.43,3.814c0,1.019 -0.888,3.344 -1.776,4.677c-1.096,1.642 -3.136,3.754 -4.625,4.493c-3.73,1.852 -6.923,-0.198 -6.923,-4.232c0,-2.221 0.549,-3.997 1.855,-5.957c1.515,-2.273 2.874,-3.265 4.676,-3.422c1.731,-0.151 3.345,0.078 4.363,0.627Z" style="fill:#ff9935;fill-rule:nonzero;"/><path d="M196.853,144.24c-1.479,0.796 -2.43,2.273 -2.43,3.814c0,1.019 0.889,3.344 1.777,4.677c1.095,1.642 3.135,3.754 4.624,4.493c3.73,1.852 6.923,-0.198 6.923,-4.232c0,-2.221 -0.548,-3.997 -1.855,-5.957c-1.515,-2.273 -2.874,-3.265 -4.676,-3.422c-1.73,-0.151 -3.344,0.078 -4.363,0.627Z" style="fill:#b4f3ff;fill-rule:nonzero;"/><path d="M199.74,148.726c-0.828,0.446 -1.36,1.272 -1.36,2.134c0,0.57 0.497,1.871 0.994,2.617c0.613,0.919 1.754,2.1 2.587,2.514c2.088,1.036 3.874,-0.111 3.874,-2.368c0,-1.243 -0.307,-2.237 -1.038,-3.333c-0.848,-1.272 -1.608,-1.827 -2.616,-1.915c-0.968,-0.084 -1.871,0.044 -2.441,0.351Z" style="fill:#defcff;fill-rule:nonzero;"/><path d="M243.797,148.726c0.827,0.446 1.359,1.272 1.359,2.134c0,0.57 -0.497,1.871 -0.994,2.617c-0.612,0.919 -1.754,2.1 -2.587,2.514c-2.087,1.036 -3.873,-0.111 -3.873,-2.368c0,-1.243 0.307,-2.237 1.037,-3.333c0.848,-1.272 1.608,-1.827 2.617,-1.915c0.968,-0.084 1.871,0.044 2.441,0.351Z" style="fill:#faca47;fill-rule:nonzero;"/><path d="M225.347,94.485c1.301,1.467 1.167,3.714 -0.3,5.015c-1.467,1.302 -3.714,1.168 -5.015,-0.299c-1.302,-1.467 -1.168,-3.714 0.299,-5.016c1.467,-1.301 3.714,-1.167 5.016,0.3Z" style="fill:none;stroke-width:1px;stroke:#999b9c;"/><path d="M223.327,107.864c0.869,0.979 0.779,2.48 -0.2,3.348c-0.98,0.869 -2.48,0.78 -3.349,-0.2c-0.869,-0.979 -0.779,-2.479 0.2,-3.348c0.979,-0.869 2.48,-0.78 3.349,0.2Z" style="fill:none;stroke-width:1px;stroke:#999b9c;"/><path d="M222.642,97.744l-1.15,12.046l0.719,11.818l9.483,18.549l-16.142,7.092" style="fill:none;stroke-width:1px;stroke:#a7a69e;"/><path d="M242.88,107.075c0.965,1.088 0.865,2.754 -0.222,3.719c-1.088,0.965 -2.754,0.866 -3.72,-0.222c-0.965,-1.087 -0.865,-2.754 0.223,-3.719c1.087,-0.965 2.754,-0.866 3.719,0.222Z" style="fill:none;stroke-width:1px;stroke:#999b9c;"/><path d="M244.86,97.462c1.141,1.286 1.024,3.256 -0.263,4.398c-1.286,1.141 -3.256,1.023 -4.397,-0.263c-1.142,-1.286 -1.024,-3.257 0.262,-4.398c1.286,-1.141 3.257,-1.023 4.398,0.263Z" style="fill:none;stroke-width:1px;stroke:#999b9c;"/><path d="M233.09,138.267c0.943,1.063 0.846,2.691 -0.217,3.634c-1.063,0.943 -2.691,0.846 -3.634,-0.217c-0.944,-1.063 -0.846,-2.691 0.217,-3.634c1.062,-0.943 2.691,-0.846 3.634,0.217Z" style="fill:#faca47;"/><path d="M217.922,145.114c1.168,1.317 1.048,3.334 -0.269,4.502c-1.317,1.169 -3.334,1.048 -4.502,-0.268c-1.169,-1.317 -1.048,-3.334 0.269,-4.503c1.316,-1.168 3.334,-1.047 4.502,0.269Z" style="fill:#b2a4f9;"/><path d="M242.343,102.662l-1.473,6.324l-18.602,12.686" style="fill:none;stroke-width:1px;stroke:#a7a69e;"/><path d="M224.946,119.071c1.377,1.552 1.235,3.931 -0.317,5.308c-1.552,1.377 -3.931,1.235 -5.308,-0.317c-1.377,-1.552 -1.235,-3.931 0.317,-5.308c1.552,-1.377 3.93,-1.235 5.308,0.317Z" style="fill:#a1d374;"/></g><g id="Layer2"><path d="M89.621,200.921l0,6.031l-17.131,0c0.118,12.551 0.053,22.038 0,38.945c-0.007,2.316 1.744,3.088 3.429,3.117c1.492,0.025 3.358,-1.396 4.558,-2.643c0.98,-1.018 2.275,-0.732 2.223,-0.59c-0.339,0.943 -1.719,4.441 -4.184,6.395c-2.175,1.725 -4.214,1.776 -6.026,1.766c-5.191,-0.028 -7.186,-3.317 -7.178,-6.46c0.038,-14.227 0.006,-27.137 0,-40.53l-5.229,0c-3.187,-0.042 -9.064,0.681 -11.976,2.076c-0.895,0.428 -0.788,-2.472 0,-3.175c2.456,-2.19 7.131,-4.521 14.513,-4.932l27.001,0Z" style="fill:#6967b4;fill-rule:nonzero;"/><path d="M105.679,253.942c-2.65,-0.021 -5.922,0.024 -7.178,0c-0.032,-15.717 0.053,-31.595 0,-45.787c-0.012,-3.389 -1.169,-5.076 -2.121,-6.03c-0.83,-0.832 0.805,-1.212 2.121,-1.204c1.993,0.012 4.791,0.002 7.178,0c-0.071,20.35 -0.13,31.032 0,42.739c0.042,3.699 1.017,7.477 2.593,9.031c1.24,1.223 -2.095,1.255 -2.593,1.251Z" style="fill:#6967b4;fill-rule:nonzero;"/><path d="M288.433,253.942c-2.651,-0.021 -5.923,0.024 -7.179,0c-0.031,-15.717 0.053,-31.595 0,-45.787c-0.012,-3.389 -1.169,-5.076 -2.12,-6.03c-0.83,-0.832 0.804,-1.212 2.12,-1.204c1.993,0.012 4.792,0.002 7.179,0c-0.072,20.35 -0.131,31.032 0,42.739c0.041,3.699 1.016,7.477 2.592,9.031c1.24,1.223 -2.095,1.255 -2.592,1.251Z" style="fill:#6967b4;fill-rule:nonzero;"/><path d="M145.973,234.776c0.345,0.592 0.647,1.215 0.906,1.869c0.259,0.653 0.512,1.313 0.759,1.979c0.246,-0.69 0.506,-1.35 0.777,-1.979c0.271,-0.629 0.58,-1.264 0.925,-1.906l17.945,-32.597c0.321,-0.568 0.654,-0.913 0.999,-1.036c0.345,-0.124 0.839,-0.185 1.48,-0.185l5.291,0l0,53.021l-6.29,0l0,-38.961c0,-0.518 0.012,-1.073 0.037,-1.665c0.025,-0.592 0.062,-1.196 0.111,-1.813l-18.167,33.152c-0.617,1.11 -1.48,1.665 -2.59,1.665l-1.036,0c-1.11,0 -1.974,-0.555 -2.59,-1.665l-18.574,-33.263c0.074,0.641 0.129,1.27 0.166,1.887c0.037,0.617 0.056,1.184 0.056,1.702l0,38.961l-6.29,0l0,-53.021l5.291,0c0.641,0 1.134,0.061 1.48,0.185c0.345,0.123 0.678,0.468 0.999,1.036l18.315,32.634Z" style="fill:#6967b4;fill-rule:nonzero;"/><path d="M208.577,248.244c2.196,0 4.157,-0.37 5.884,-1.11c1.726,-0.74 3.188,-1.776 4.384,-3.108c1.196,-1.332 2.109,-2.923 2.738,-4.773c0.629,-1.85 0.944,-3.885 0.944,-6.105l0,-32.227l7.141,0l0,32.227c0,3.059 -0.487,5.896 -1.462,8.51c-0.974,2.615 -2.368,4.878 -4.181,6.79c-1.813,1.912 -4.027,3.41 -6.641,4.495c-2.615,1.086 -5.55,1.628 -8.807,1.628c-3.256,0 -6.191,-0.542 -8.806,-1.628c-2.614,-1.085 -4.834,-2.583 -6.66,-4.495c-1.825,-1.912 -3.225,-4.175 -4.199,-6.79c-0.975,-2.614 -1.462,-5.451 -1.462,-8.51l0,-32.227l7.141,0l0,32.19c0,2.22 0.315,4.255 0.944,6.105c0.629,1.85 1.542,3.441 2.738,4.773c1.196,1.332 2.664,2.374 4.403,3.127c1.739,0.752 3.706,1.128 5.901,1.128Z" style="fill:#6967b4;fill-rule:nonzero;"/><path d="M249.167,247.911l22.94,0l0,6.031l-30.118,0l0,-53.021l7.178,0l0,46.99Z" style="fill:#6967b4;fill-rule:nonzero;"/><path d="M317.785,247.911l20.901,0l0,6.031l-30.119,0l20.298,-53.021l7.178,0l-18.258,46.99Z" style="fill:#6967b4;fill-rule:nonzero;"/><path d="M368.271,212.724l-15.281,39.516c-0.173,0.444 -0.469,0.839 -0.888,1.184c-0.42,0.346 -0.938,0.518 -1.555,0.518l-5.55,0l21.202,-53.021l7.289,0l21.201,53.021l-5.55,0c-0.641,0 -1.159,-0.16 -1.554,-0.481c-0.395,-0.32 -0.691,-0.727 -0.888,-1.221l-15.281,-39.553c-0.543,-1.332 -1.073,-2.997 -1.591,-4.995c-0.272,1.011 -1.308,4.391 -1.554,5.032Z" style="fill:#6967b4;"/><path d="M414.102,200.956c-3.469,0.338 -5.999,1.464 -8.379,3.735c-2.729,2.609 -3.656,5.361 -3.891,11.536c-0.036,0.94 -0.061,10.192 -0.061,23.101c0,14.072 -0.024,21.873 -0.06,22.5c-0.156,2.451 -0.524,5.15 -1.06,7.849c-0.114,0.578 -0.205,1.06 -0.205,1.072c0,0.012 1.398,0.024 3.102,0.024l3.097,0l0.06,-0.229c0.584,-2.223 1.024,-5.301 1.211,-8.566c0.036,-0.578 0.078,-3.174 0.102,-5.771l0.036,-4.722l0.669,0.662c1.042,1.03 1.675,1.494 2.819,2.066c1.982,0.994 4.217,1.308 7.247,1.012c2.44,-0.234 4.765,-1 6.56,-2.15c2.211,-1.416 4.325,-3.892 5.741,-6.729c0.988,-1.976 1.548,-4.012 1.771,-6.433c0.09,-0.958 0.036,-3.271 -0.091,-4.109c-0.403,-2.674 -1.379,-4.957 -2.969,-6.927c-1.362,-1.687 -3.332,-3.229 -5.681,-4.434c-0.398,-0.204 -0.723,-0.379 -0.723,-0.391c0,-0.006 0.368,-0.289 0.819,-0.627c0.916,-0.686 2.187,-1.885 2.777,-2.62c1.958,-2.428 2.904,-5.295 2.765,-8.403c-0.18,-4.048 -1.729,-6.886 -4.903,-8.988c-1.928,-1.271 -4.036,-2.03 -6.578,-2.367c-0.813,-0.109 -3.404,-0.169 -4.175,-0.091ZM417.373,203.637c1.356,0.271 2.476,0.873 3.464,1.861c1.831,1.844 2.644,4.5 2.542,8.313c-0.072,2.633 -0.53,4.753 -1.554,7.133c-0.283,0.662 -0.855,1.783 -1.03,2.018l-0.078,0.108l-0.398,-0.12c-1.88,-0.585 -4.151,-0.886 -5.44,-0.729c-1.156,0.138 -1.777,0.439 -2.096,1.012l-0.181,0.313l0,0.416c0,0.939 0.53,1.475 1.789,1.825l0.482,0.132l1.476,0c1.566,0.006 2,-0.042 3.458,-0.361l0.663,-0.145l0.174,0.163c0.295,0.283 1.151,1.289 1.476,1.741c1.777,2.458 3.235,6.469 3.723,10.204c0.132,1.018 0.181,3.319 0.09,4.337c-0.283,3.265 -1.229,5.946 -2.807,7.982c-1.157,1.488 -2.813,2.446 -4.94,2.843c-0.409,0.079 -0.885,0.103 -1.927,0.109l-1.386,0l-0.542,-0.109c-1.759,-0.361 -3.174,-1.102 -4.445,-2.325c-0.633,-0.608 -1.362,-1.506 -1.693,-2.072l-0.157,-0.271l0.018,-17.909c0.018,-19.09 0.006,-18.186 0.314,-20.023c0.325,-1.922 1.048,-3.308 2.373,-4.561c1.199,-1.126 2.56,-1.777 4.15,-1.969c0.597,-0.079 1.904,-0.03 2.482,0.084Z" style="fill:#6967b4;fill-rule:nonzero;"/><path d="M40.499,201.807c-1.075,-1.028 -12.767,-1.571 -18.114,0.714c-7.502,3.205 -10.545,11.35 -11.18,17.313c-0.133,1.19 -0.147,3.827 -0.035,4.823c0.433,3.871 1.091,8.047 4.782,9.069c6.354,1.759 18.015,0.29 19.527,4.324c0.937,2.498 1.619,4.662 -0.485,8.658c-1.731,3.285 -4.397,3.225 -6.413,3.128c-2.468,-0.12 -4.314,-2.065 -5.061,-2.015c-0.733,0.044 -2.193,0.245 -2.591,0.608c-0.481,0.426 1.579,5.274 4.574,5.368c3.681,0.113 8.278,0.656 10.844,-1.462c2.249,-1.855 3.456,-5.355 3.973,-8.762c0.154,-0.977 0.219,-2.943 -0.003,-5.107c-0.399,-3.89 -0.667,-6.293 -5.947,-8.124c-2.989,-1.036 -17.42,-1.61 -18.663,-5.484c-1.364,-4.252 0.728,-12.648 4.122,-15.254c5.625,-4.318 18.211,-2.677 19.127,-2.699c0.931,-0.021 2.066,-4.599 1.543,-5.098Z" style="fill:#6967b4;fill-rule:nonzero;"/><circle cx="102.214" cy="193.398" r="3.675" style="fill:#6967b4;"/><circle cx="285.012" cy="193.398" r="3.675" style="fill:#6967b4;"/><circle cx="369.843" cy="193.398" r="3.675" style="fill:#6967b4;"/></g></svg>